<?xml version="1.0" encoding="UTF-8"?>
<svg id="Layer_1" data-name="Layer 1" xmlns="http://www.w3.org/2000/svg" viewBox="0 0 1918.73 1426.24">
  <defs>
    <style>
      .cls-1 {
        fill: #fff;
        stroke-width: 0px;
      }
    </style>
  </defs>
  <path class="cls-1" d="M622.84,454.82c6.8,138.6-45.25,262.44-107.81,383.39-32.2,62.24-69.8,121.32-105.74,181.38-47.74,79.79-42.22,105.37,39.87,147.04,79.51,40.37,164.74,63.01,254.71,61.66,99.43-1.48,149.98-53.5,154.59-157.01,3.86-86.61-16.98-169.93-35.32-253.46-18.33-83.5-39.2-166.43-54.61-250.6-13.83-75.53-.73-139.98,64.76-188.6,67.1-49.81,52.41-107.82-11.01-145.03-24.16-14.17-47.87-29.15-71.32-44.48-50.31-32.92-56.99-73.13-12.26-112.99,108.54-96.73,172.61-94.64,274.92-29.31,25.8,16.48,47.66,37.59,65.22,63.29,19.19,28.09,19.31,55.99.35,82.77-19,26.85-38.48,53.92-61.41,77.32-63.14,64.41-71.81,140.86-55.76,224.38,21.57,112.25,43.69,224.41,63.18,337.02,8.68,50.14,16.19,101.09,12.79,152.26-4.43,66.62-36.56,133.73-74.9,174.79-73.06,74.04-120.93,117.51-196.42,185.88-94.58,78.95-108.17,108.98-260.87,52.84-107.57-43.51-194.82-63.49-294.48-110.95-1.39-.89-2.85-1.66-4.25-2.54-61.71-38.56-68.57-69.79-25.62-128.99,31.43-43.33,64.64-85.4,97.77-127.48,65.55-83.27,114.7-175.27,140.66-277.86,39.58-156.45,35.61-311.42-27.68-462.08-13.79-32.82-33.62-62.19-60.41-86.47-35.44-32.11-75.18-37.39-113.14-14.41-45.11,27.31-64.77,71.59-52.89,116.87,7.03,26.77,20.67,50.07,35.21,73.08,39.15,61.97,83.27,120.75,119.6,184.52,16.7,29.32,29.87,59.69,36.66,93.53,8.39,41.88-1.54,78.14-22.9,112.98-20.55,33.52-47.86,60.74-79.75,83.41-14.18,10.08-29.4,17.8-47.58,18.94-17.34,1.09-34.07.42-43.27-16.52-9.97-18.35-5.05-37.57,9.74-49.44,38.59-30.96,27.63-67.16,12.61-102.59-26.63-62.82-73.81-112.76-110.51-169.32-25.51-39.32-54.12-77.1-67.2-123.06-12.38-43.48-12.77-87.24,10.51-127.05C92.74,155.65,195.35,61.52,333.81,9.58c57.31-21.49,106.43-4.46,149.84,35.7,50.64,46.84,79.51,106.83,101.12,170.27,26.15,76.77,40.22,156.05,38.07,239.26Z"/>
  <path class="cls-1" d="M1746.2,988.54c-.42-42.71.67-85.21-6.26-127.98-12.15-75-50.54-133.17-112.16-173.1-92.78-60.13-191.58-109.67-297.34-143.84-11.6-3.75-24.16-5.76-36.37-6.22-31.27-1.18-47.94,23.62-36.08,52.81,7.39,18.2,21.05,31.12,36.96,42.1,45.74,31.56,97.16,52.22,146.72,76.42,66.37,32.41,129.17,69.3,176.61,127.99,64.42,79.68,64.64,168.11-.86,247.36-12.6,15.25-26.11,29.72-43.21,40.31-39.26,24.32-71.72,9.23-78.39-36.48-2.97-20.35-.26-40.91-4.48-61.41-15.72-76.25-66.42-123.15-131.76-156.99-52.65-27.27-106.71-51.81-159.89-78.09-21.44-10.59-41.77-23.23-60.12-38.76-56.88-48.13-59.64-107.1-7.45-159.55,14.53-14.61,29.97-28.4,43.66-43.74,31.16-34.93,30.38-66.1-1.29-100.15-50.34-54.11-62.24-114.7-23.82-178.57,80.43-133.67,195.52-225.29,348.21-266.12,45.54-12.18,88.1,2.48,130.24,17.21,29.51,10.32,58.07,23.02,88.61,30.8,27.73,7.07,50.43.41,70.53-18.32,14.63-13.63,30.45-23.82,51.06-15.03,20.24,8.63,24.79,27.37,26.63,46.82,6.92,73.15-85.04,197.43-187.93,165.3-51.92-16.22-103.44-33.35-154.52-51.78-45.65-16.47-92.46-17.6-139.23-11.85-66.92,8.23-101.66,91.39-63.14,147.09,18.36,26.55,44.7,43.57,71.73,59.51,77.65,45.79,160.82,79.49,244.69,111.89,131.19,50.68,225.42,137.39,263.92,276.46,9.48,34.24,13.84,69.44,14.76,104.91.87,33.75-2.03,67.77,1.18,101.25,8.81,92.15-27.76,166.78-85.58,234.17-59.47,69.31-126.27,129.78-207.12,173.79-48.13,26.19-98.94,34.97-152.99,27.08-54.69-7.98-108.57-19.93-161.85-34.29-21.66-5.84-43.64-8.51-65.62-11.63-26.12-3.71-48.18,2.98-66.55,23.78-15.54,17.6-34.78,32.76-60.61,22.02-26.3-10.93-30.16-34.85-29.66-59.87,1.29-64.97,28.36-117.62,78.4-158.23,27.35-22.2,60.01-24.42,93.92-20.83,60.3,6.38,117.43,25.2,174.97,42.63,60.43,18.31,121.49,29.39,185.24,20.86,61.03-8.17,106.59-49.53,117.62-109.68,2.67-14.56,7.55-28.97,8.22-43.59,1.32-28.76.39-57.63.39-86.46Z"/>
</svg>