<?xml version="1.0" encoding="UTF-8"?>
<svg id="Layer_1" data-name="Layer 1" xmlns="http://www.w3.org/2000/svg" viewBox="0 0 1910.45 291.93">
  <defs>
    <style>
      .cls-1 {
        fill: #090000;
        stroke-width: 0px;
      }
    </style>
  </defs>
  <path class="cls-1" d="M100.21,78.81c1.09,22.3-7.28,42.22-17.35,61.68-5.18,10.01-11.23,19.52-17.01,29.18-7.68,12.84-6.79,16.95,6.41,23.66,12.79,6.5,26.51,10.14,40.98,9.92,16-.24,24.13-8.61,24.87-25.26.62-13.94-2.73-27.34-5.68-40.78-2.95-13.43-6.31-26.78-8.79-40.32-2.22-12.15-.12-22.52,10.42-30.34,10.8-8.01,8.43-17.35-1.77-23.33-3.89-2.28-7.7-4.69-11.47-7.16-8.09-5.3-9.17-11.77-1.97-18.18,17.46-15.56,27.77-15.23,44.23-4.72,4.15,2.65,7.67,6.05,10.49,10.18,3.09,4.52,3.11,9.01.06,13.32-3.06,4.32-6.19,8.68-9.88,12.44-10.16,10.36-11.55,22.66-8.97,36.1,3.47,18.06,7.03,36.11,10.17,54.22,1.4,8.07,2.61,16.26,2.06,24.5-.71,10.72-5.88,21.52-12.05,28.12-11.75,11.91-19.46,18.91-31.6,29.91-15.22,12.7-17.4,17.53-41.97,8.5-17.31-7-31.35-10.21-47.38-17.85-.22-.14-.46-.27-.68-.41-9.93-6.2-11.03-11.23-4.12-20.75,5.06-6.97,10.4-13.74,15.73-20.51,10.55-13.4,18.45-28.2,22.63-44.71,6.37-25.17,5.73-50.11-4.45-74.34-2.22-5.28-5.41-10.01-9.72-13.91-5.7-5.17-12.1-6.02-18.2-2.32-7.26,4.39-10.42,11.52-8.51,18.8,1.13,4.31,3.33,8.06,5.67,11.76,6.3,9.97,13.4,19.43,19.24,29.69,2.69,4.72,4.81,9.6,5.9,15.05,1.35,6.74-.25,12.57-3.68,18.18-3.31,5.39-7.7,9.77-12.83,13.42-2.28,1.62-4.73,2.86-7.65,3.05-2.79.18-5.48.07-6.96-2.66-1.6-2.95-.81-6.04,1.57-7.95,6.21-4.98,4.45-10.8,2.03-16.51-4.29-10.11-11.87-18.14-17.78-27.24-4.1-6.33-8.71-12.4-10.81-19.8-1.99-7-2.05-14.04,1.69-20.44C14.92,30.68,31.43,15.53,53.71,7.18c9.22-3.46,17.12-.72,24.11,5.74,8.15,7.54,12.79,17.19,16.27,27.39,4.21,12.35,6.47,25.11,6.13,38.5Z"/>
  <path class="cls-1" d="M1232.57,164.68c-.07-6.87.11-13.71-1.01-20.59-1.95-12.07-8.13-21.43-18.05-27.85-14.93-9.67-30.82-17.64-47.84-23.14-1.87-.6-3.89-.93-5.85-1-5.03-.19-7.71,3.8-5.8,8.5,1.19,2.93,3.39,5.01,5.95,6.77,7.36,5.08,15.63,8.4,23.61,12.3,10.68,5.21,20.78,11.15,28.42,20.59,10.37,12.82,10.4,27.05-.14,39.8-2.03,2.45-4.2,4.78-6.95,6.49-6.32,3.91-11.54,1.48-12.61-5.87-.48-3.27-.04-6.58-.72-9.88-2.53-12.27-10.69-19.81-21.2-25.26-8.47-4.39-17.17-8.34-25.72-12.56-3.45-1.7-6.72-3.74-9.67-6.24-9.15-7.74-9.6-17.23-1.2-25.67,2.34-2.35,4.82-4.57,7.02-7.04,5.01-5.62,4.89-10.64-.21-16.11-8.1-8.71-10.01-18.45-3.83-28.73,12.94-21.51,31.46-36.25,56.02-42.82,7.33-1.96,14.18.4,20.95,2.77,4.75,1.66,9.34,3.7,14.26,4.96,4.46,1.14,8.11.07,11.35-2.95,2.35-2.19,4.9-3.83,8.21-2.42,3.26,1.39,3.99,4.4,4.28,7.53,1.11,11.77-13.68,31.76-30.24,26.59-8.35-2.61-16.64-5.37-24.86-8.33-7.35-2.65-14.88-2.83-22.4-1.91-10.77,1.32-16.36,14.7-10.16,23.66,2.95,4.27,7.19,7.01,11.54,9.58,12.49,7.37,25.87,12.79,39.37,18,21.11,8.15,36.27,22.1,42.46,44.48,1.52,5.51,2.23,11.17,2.37,16.88.14,5.43-.33,10.9.19,16.29,1.42,14.83-4.47,26.83-13.77,37.68-9.57,11.15-20.32,20.88-33.32,27.96-7.74,4.21-15.92,5.63-24.61,4.36-8.8-1.28-17.47-3.21-26.04-5.52-3.48-.94-7.02-1.37-10.56-1.87-4.2-.6-7.75.48-10.71,3.83-2.5,2.83-5.6,5.27-9.75,3.54-4.23-1.76-4.85-5.61-4.77-9.63.21-10.45,4.56-18.92,12.61-25.46,4.4-3.57,9.65-3.93,15.11-3.35,9.7,1.03,18.89,4.05,28.15,6.86,9.72,2.95,19.55,4.73,29.8,3.36,9.82-1.31,17.15-7.97,18.92-17.65.43-2.34,1.22-4.66,1.32-7.01.21-4.63.06-9.27.06-13.91Z"/>
  <path class="cls-1" d="M373.96,59.08c6.98-.77,14,1.67,21.04,4.08,6.69,2.29,13.5,3.63,20.65,3.6,4.26-.02,9.1-.08,10.76,5.45,1.21,4.06-.8,9.53-6.28,11.6-11.58,4.38-10.37,13.1-9.08,22.24.87,6.15,1.8,12.3,2.65,18.46.89,6.43-.55,12.34-4.06,17.8-8.64,13.42-20.43,23.18-34.82,29.88-6.83,3.18-14.5,2.96-21.63,4.99-3.84,1.09-7.53,2.53-10.93,4.64-2.72,1.68-4.5,4.12-5.3,7.18-1.5,5.7.93,8.83,6.82,9.45,8.59.91,16.92-.98,25.27-2.27,7.36-1.14,14.71-2.12,22.14-2.18,8.64-.07,15.73,3.55,21,10.31,9.22,11.82,12.2,25.66,12.25,40.27.01,4.15-1.69,8.02-3.92,11.54-9.92,15.67-23.97,26.28-40.97,33.3-7.78,3.21-15.91,2.62-23.97,2.13-8.99-.54-17.95-1.54-26.71-3.84-3.87-1.02-7.65-2.26-11.19-4.08-7.95-4.1-10.65-11.23-7.56-19.78,2.86-7.91,8.31-14.1,13.76-20.26,2.64-2.98,5.48-5.79,7.48-9.26,2.42-4.18,1.33-6.39-3.37-7.16-3.52-.58-7.07-.95-10.45-2.29-6.44-2.56-9.83-8.43-8.48-15.19,2.2-10.99,9.15-19.21,16.19-27.36,1.65-1.91,3.48-3.66,5.03-5.64,3.32-4.26,3.02-6.69-1.01-10.2-1.3-1.13-2.59-2.27-3.92-3.37-8.97-7.46-12.76-17.42-13.31-28.68-.4-8.33-.29-16.69-.17-25.04.09-6.48,3.1-11.99,6.73-17.12,8.99-12.74,21.12-21.85,34.69-29.18,6.21-3.35,12.93-4.65,20.65-4.03ZM337.67,109.11c-.15,8.39-.33,14.62,1.34,20.7,4.5,16.44,21.71,24.26,37.64,21.96,5.31-.77,8.23-4.1,9.21-9.08,2.3-11.66,2.16-23.39.32-35.1-.6-3.81-1.93-7.4-4.15-10.63-7.57-11.03-18.69-13.09-30.88-11.92-7.38.71-10.97,4.46-12.73,11.63-1.19,4.85-.62,9.74-.74,12.44ZM376.34,269.79c1.85,0,3.73.17,5.56-.03,6.27-.7,12.74-2.07,14.58-8.97,3.08-11.53,1.99-22.82-5.09-32.96-2.18-3.12-5.23-4.71-9.16-4.6-5.29.15-10.51.64-15.79,1.29-14.32,1.79-22.25,10.62-27.18,23.05-3.44,8.67-1.85,12.35,6.48,16.66,9.63,4.99,20.23,4.69,30.6,5.55Z"/>
  <path class="cls-1" d="M562.01,129c0-14.31-.27-28.62.07-42.92.42-17.55-2.74-34.21-10.61-49.96-1.9-3.79-3.34-7.8-3.16-12.18.25-5.85,4.96-8.79,10.26-6.26,1.9.91,3.63,2.18,5.41,3.32,4.07,2.61,6.69,2.31,9.6-1.59,3.08-4.14,5.81-8.54,8.82-12.74,1.87-2.61,4.17-4.9,7.26-6.01,6.71-2.4,12.79,2,13.3,9.34.63,9.22-2.15,17.8-4.89,26.37-4.26,13.37-8.73,26.69-8.9,40.95,0,.4-.05.8-.04,1.19.11,3-.61,6.73,2.97,7.93,3.69,1.24,6.24-1.62,8.13-4.36,2.79-4.02,5.22-8.29,7.82-12.44,1.76-2.81,3.51-5.62,6.07-7.81,6.09-5.2,12.82-3.26,19.29-1.34,16.04,4.77,23.96,16.92,28.38,32.06,1.91,6.56,2.07,13.34,2.12,20.07.16,19.34-.56,38.7.25,58.01.62,14.76-5.16,26.11-14.89,36.26-8.72,9.1-18.77,16.32-30.17,21.71-13.06,6.18-28.98,3.48-40.42-6.59-12.67-11.15-16.55-25.73-16.68-41.76-.14-17.09-.03-34.17-.03-51.26h.04ZM636.81,155.85s-.03,0-.04,0c0-11.25.18-22.51-.07-33.75-.16-7.09-2.13-13.88-5.81-19.98-8.01-13.26-22.14-14.44-32.29-2.75-5.57,6.41-8.82,14.06-9.28,22.37-.99,17.95-1.66,35.94.78,53.87,2.42,17.79,13.6,27.94,31.48,28.46,9.99.3,15.02-4.33,15.19-14.46.18-11.25.04-22.5.04-33.76Z"/>
  <path class="cls-1" d="M1603.45,137.23c0,11.79-.49,23.61.14,35.37.63,11.72-3.78,21.18-11.01,29.72-8.92,10.54-19.69,18.74-31.93,25.24-19.05,10.13-42.55.63-52.07-16.72-4.41-8.04-6.68-16.67-6.68-25.87-.01-22.66.36-45.32-.19-67.96-.38-15.74,6.8-27.01,18.5-36.3,4.8-3.81,10.33-6.46,15.56-9.59,9.34-5.59,9.86-9.6,2.12-17.14-4.38-4.27-9.19-7.99-14.41-11.21-6.73-4.14-13.86-5.61-21.72-4.26-6.56,1.13-11.1-4.11-9.06-10.51,2.48-7.81,7.28-14.24,14.15-18.66,6.73-4.33,13.74-1.34,20.26,1,8.52,3.06,16.28,7.77,23.5,13.22,18.91,14.3,35.19,30.98,46.58,52.01,4.17,7.71,6.55,15.76,6.33,24.68-.31,12.31-.08,24.64-.08,36.96ZM1576.67,147.49c-.13,0-.25,0-.38,0,0-11.39-.17-22.78.04-34.17.23-12.57-4.23-23.28-12.21-32.71-6.53-7.72-12.92-8.04-19.8-.59-9.81,10.63-14.7,23.57-15.54,37.8-.64,10.82-.25,21.72-.13,32.58.1,8.71-.45,17.42,1.32,26.12,3.6,17.72,13.19,26.9,31.32,27.99,7.22.43,12.22-3.26,14.08-10.25.92-3.48,1.29-7.02,1.29-10.61,0-12.05,0-24.1,0-36.15Z"/>
  <path class="cls-1" d="M1909.9,175.1c2.02,10.38-1.72,19.61-8.59,27.92-9.85,11.92-21.41,21.51-36.08,27-6.25,2.34-12.51,2.53-18.81.46-5.31-1.75-10.6-3.59-15.86-5.5-4.47-1.63-8.54-1.32-12.48,1.58-2.75,2.02-5.94,3.75-9.16,1.16-3.25-2.61-3.22-6.28-1.93-9.91,3.16-8.81,9.06-15.32,17.21-19.76,6.86-3.74,13.76-2.22,20.45.52,6.04,2.47,11.83,5.56,17.89,7.98,10.33,4.12,16.63.28,17.95-10.74,1.65-13.73.95-27.24-5.27-39.88-4.32-8.78-9.42-10.47-18.24-6.3-5.78,2.74-11.31,6-17.01,8.9-2.49,1.26-5.06,2.43-7.71,3.27-6.33,2-11.19.17-14.93-5.3-6.02-8.8-7.49-18.98-8.81-29.19-.58-4.49-.56-9.06-1.11-13.56-1.19-9.77,1.94-18.05,8.02-25.57,9.38-11.59,20.59-20.78,34.05-27.27,8.27-3.99,16.4-3.9,24.66-.14,5.21,2.37,10.3,5.03,15.9,6.47,2.94.76,5.57.54,7.9-1.42,2.08-1.75,4.19-2.85,6.91-1.45,2.88,1.48,3.83,4.08,3.71,7-.44,10.19-6.27,17-14.44,22.12-4.81,3.02-10.01,3.24-15.38,1.31-6.45-2.32-12.17-6.05-18.21-9.15-3.48-1.79-7.06-3.11-10.99-3.45-7.05-.61-12.41,2.68-13.42,9.66-2.01,13.77-1.18,27.47,4.38,40.45,2.71,6.31,6.8,7.81,13.37,5.42,7.67-2.78,14.43-7.49,21.89-10.73,2.44-1.06,4.91-2.08,7.46-2.84,7.75-2.29,12.75-.31,17.03,6.56,3.74,6,5.37,12.76,6.82,19.54,1.71,7.97,2.67,16.06,2.82,24.81Z"/>
  <path class="cls-1" d="M1042.64,136.85c0,12.06-.49,24.14.14,36.16.6,11.6-3.88,20.9-10.99,29.32-9,10.66-19.87,18.95-32.29,25.41-17.01,8.86-36.81,1.74-46.9-10.14-7.42-8.74-11.18-19.04-11.34-30.28-.36-25.56-.41-51.14-.03-76.7.15-10.15,5.75-18.22,12.83-25.23,5.15-5.1,11.21-8.85,17.51-12.3,3.14-1.72,6.3-3.42,8.83-6.03,2.32-2.39,2.68-4.93,1.01-7.93-6.93-12.39-26.42-22.35-40.44-20.55-6.58.85-11.09-4.27-9.04-10.6,2.49-7.66,7.31-13.75,13.81-18.48,3.76-2.74,7.99-2.37,12.25-1.54,11.48,2.24,21.32,8.01,30.57,14.74,19.63,14.28,36.18,31.43,47.89,52.91,4.19,7.7,6.52,15.76,6.28,24.68-.33,12.18-.08,24.38-.08,36.56ZM1015.87,147.99c-.11,0-.22,0-.33,0,0-12.45.16-24.9-.04-37.34-.21-12.68-5.52-23.31-14.26-32.25-4.54-4.64-8.36-4.83-13.93-1.46-3.62,2.18-6.18,5.39-8.43,8.84-7.26,11.15-11.22,23.33-11.04,36.7.22,16.28-.92,32.6.59,48.84,1.56,16.79,9.4,31.83,30.82,33,8.03.44,13.16-2.12,15.35-9.96.9-3.21,1.3-6.47,1.29-9.81-.04-12.18-.01-24.37-.01-36.55Z"/>
  <path class="cls-1" d="M1444.95,144.15c0-11.66-.19-23.33.07-34.98.17-7.41-2.52-13.3-7.61-18.5-8.95-9.14-8.72-14.55,1.38-22.44,16.96-13.25,22.81-12.43,39.4-.15,1.17.86,2.27,1.84,3.29,2.87,6.32,6.36,6.67,11.53.2,17.81-7.16,6.95-10.04,14.88-9.81,24.9.52,22.52.28,45.05.09,67.58-.06,6.83,2.19,12.39,6.82,17.2,1.29,1.34,2.57,2.68,3.79,4.08,5.03,5.77,4.91,10.41-.26,16.13-5.11,5.65-11.36,9.54-18.5,11.98-4.44,1.51-8.78,1.29-12.95-1.38-3.83-2.45-7.1-5.55-10.56-8.43-9.2-7.67-15.38-8.13-25.56-1.61-6.13,3.93-11.88,8.46-18.78,11.13-12.29,4.77-32.64-6.61-34.56-19.54-.78-5.24.72-10.25,2.55-15.11,5.18-13.75,11.42-27.09,15.76-41.17,4.48-14.55,6.13-29.25,2.5-44.24-1.83-7.52-6.06-13.45-12.29-17.99-1.29-.94-2.62-1.82-3.86-2.8-7.5-5.95-8.02-11.83-1.51-18.83,4.39-4.72,9.61-8.36,15.64-10.68,10.42-4,20.26.46,26.15,11.91,3.74,7.28,5.39,15.11,6.02,23.27,1.61,20.93-4.97,40.26-11.26,59.68-2.69,8.3-5.52,16.56-5.69,25.46-.21,10.68,7.42,20.9,17.99,22.36,10.53,1.46,19.93-1.76,27.53-9.47,3.09-3.13,4.04-6.99,4.03-11.27-.05-12.59-.02-25.18-.02-37.77Z"/>
  <path class="cls-1" d="M842.44,145.84c0,11.13.4,22.28-.13,33.39-.41,8.67,2.69,15.44,8.57,21.35,1.21,1.22,2.47,2.43,3.49,3.81,2.53,3.42,2.95,7.21.61,10.77-5.4,8.22-13.31,13.18-22.56,15.97-3.03.91-6.33.57-9.38-.67-6.98-2.83-13.24-6.72-18.27-12.38-4.9-5.51-4.82-10.01.13-15.4,1.97-2.15,3.92-4.32,5.75-6.59,3.08-3.83,4.7-8.12,4.68-13.17-.1-25.18-.1-50.36,0-75.53.02-5.5-1.83-10.07-5.41-14.08-1.5-1.68-3.02-3.35-4.52-5.03-5.66-6.33-5.69-10.84.07-16.98,5.28-5.64,11.91-9.27,19.03-11.97,4.39-1.67,8.7-.72,12.42,2.06,4.15,3.09,8.12,6.41,12.16,9.63,7.86,6.27,13.25,6.61,21.81,1.32,5.64-3.48,11.16-7.17,16.9-10.48,7.48-4.31,15.17-4.52,22.65.03,6.95,4.23,13.99,8.6,15.55,17.5.99,5.64-.78,11.03-2.8,16.24-5.35,13.83-11.48,27.36-15.7,41.61-3.57,12.06-5.09,24.31-3.75,36.89,1.21,11.34,6.73,19.87,16.32,25.93,1.45.91,2.82,2.01,4.03,3.21,3.86,3.81,4.71,8.21,1.52,12.52-7.03,9.49-15.55,16.85-28.51,15.49-7.82-.82-12.27-6.39-15.82-12.62-4.14-7.27-5.73-15.29-6.32-23.57-1.16-16.31,2.51-31.81,7.51-47.15,3.24-9.93,7.16-19.68,8.98-30.02,1.42-8.06,2.28-15.88-4.31-22.72-13.84-14.38-36.45-5.68-42.82,4.89-1.67,2.76-1.86,5.74-1.86,8.8,0,12.32,0,24.65,0,36.97Z"/>
  <path class="cls-1" d="M284.7,141.84c0,12.58.13,25.17-.05,37.75-.11,7.48,2.28,13.69,7.81,18.79,2.23,2.05,4.49,4.12,6.17,6.72,1.87,2.91,2.43,6.05.72,9.03-5.23,9.1-13.31,14.59-23.35,17.1-4.7,1.18-8.88-.41-12.18-4.09-2.83-3.16-5.68-6.3-8.57-9.41-5.44-5.87-9.58-5.91-15.05-.17-2.1,2.21-4.2,4.42-6.18,6.74-7.37,8.61-17.5,9.12-26.66,4.81-20.2-9.5-30.83-39.56-20.79-59.35,3.32-6.54,8.83-10.75,15.1-14.21,8.87-4.89,8.95-5.47.7-11.42-9.98-7.19-16.11-16.49-17.7-28.88-1.08-8.43,1.89-15.46,6.61-21.84,11.02-14.9,24.91-26.39,42.36-33.07,14.54-5.56,36.72,1.09,46.19,20.07,6.08,12.19,6.36,24.98,5.63,38.01-.44,7.81-.78,15.61-.76,23.43ZM257.68,172.26c.07-5.69.6-11.41-.33-17.06-.89-5.42-3.76-7.99-9.07-8.2-3.18-.13-6.37-.14-9.55-.04-13.29.41-28.78,12.56-27.85,28.99.94,16.49,10.8,27.59,28.63,27.05,10.21-.31,17.41-6.67,18.11-16.83.32-4.61.05-9.27.05-13.9ZM210.89,99.54c-.12,5.62,1.1,10.77,3.61,15.5,7.32,13.79,19.79,18.8,34.51,19.48,4.72.22,7.34-2.49,8.43-7.38,1.03-4.6.64-9.2.04-13.81-2.41-18.46-16.75-30.36-35.27-29.33-4.8.27-7.92,2.78-9.9,6.83-1.36,2.77-1.61,5.84-1.43,8.7Z"/>
  <path class="cls-1" d="M533.76,139.2c0,14.42.08,26.75-.03,39.07-.07,8.1,2.16,15.13,8.5,20.54.5.43.94.94,1.41,1.41,7.93,7.92,8.05,12.99-.12,20.72-5.32,5.03-11.28,9.25-18.83,10.43-4.4.69-8.13-.55-11.15-3.82-3.06-3.31-6.05-6.69-9.14-9.96-5.35-5.66-9.43-5.69-14.77-.13-2.11,2.2-4.19,4.43-6.18,6.74-8.44,9.75-19.36,9.39-29.1,3.7-14.99-8.75-24.12-28.55-22.05-45.88,1.45-12.15,7.69-20.5,18.2-26.2,9.51-5.15,9.55-5.59.66-12.06-10.12-7.36-16-17.02-17.31-29.53-1.08-10.34,4.07-18.27,10.21-25.44,9.73-11.36,21.34-20.34,34.99-27,16.12-7.87,40.28-.77,49.83,18.14,5.93,11.75,6.58,24.08,5.93,36.76-.42,8.2-.77,16.41-1.05,22.51ZM507.01,172.31c-.11-6.07.75-12.2-.65-18.22-1.04-4.48-3.78-6.83-8.36-7.07-3.31-.17-6.63-.16-9.95-.07-13.09.36-28.98,12.44-27.85,29.36,1.07,16.05,10.63,27.19,28.56,26.69,10.34-.29,17.59-6.84,18.21-17.18.27-4.49.04-9,.04-13.51ZM507.28,119.86c-.52-21.57-12.95-35.16-32.78-35.84-8.95-.3-13.86,4.22-14.29,13.16-.88,18.4,11.33,33.49,29.58,36.55,13.97,2.35,17.79-.69,17.48-13.87Z"/>
  <path class="cls-1" d="M1792.79,139.75c0,12.32-.02,24.64,0,36.96.01,5.82-1.24,11.26-4.31,16.28-9.54,15.63-23,26.97-39.27,34.94-19.35,9.48-43.81.26-53.19-20.11-3.33-7.22-5.14-14.8-5.2-22.66-.18-24.64-.14-49.28-.09-73.92.01-6.32,2.63-11.85,6.2-16.9,9.68-13.67,22.26-23.85,37.06-31.75,20.08-10.72,46.83,1.89,54.4,21.69,3.3,8.62,4.24,17.44,4.35,26.46.12,9.67.03,19.34.03,29.01ZM1765.89,152.48c-.6-11.72,1.12-25.92-1.67-39.99-3.43-17.29-15.38-26.88-33-26.11-7.25.32-10.91,3.28-12.73,10.26-.61,2.34-.63,4.72-.63,7.1,0,19.21-.02,38.42,0,57.63,0,4.9.16,9.79,1.11,14.63,3.43,17.41,13.29,28.84,33.02,28.03,7.86-.32,12.32-4.03,13.44-11.8.38-2.61.42-5.28.44-7.93.05-9.8.02-19.61.02-31.83Z"/>
  <path class="cls-1" d="M785.5,141.04c0,10.99-.44,22.01.13,32.98.51,9.9-2.69,18.15-8.61,25.7-9.14,11.65-20.31,20.89-33.46,27.65-20.26,10.42-45.58.99-54.95-20.35-3.14-7.14-4.79-14.62-4.83-22.35-.14-24.37-.1-48.75-.08-73.12,0-6.18,2.34-11.66,5.8-16.63,9.74-13.98,22.47-24.37,37.54-32.37,19.87-10.53,46.54,1.64,54.15,21.46,2.54,6.61,4.27,13.33,4.23,20.47-.06,12.19-.02,24.37-.02,36.56.03,0,.05,0,.08,0ZM710.59,137.56c.5,11.42-1.19,25.26,1.47,38.91,3.2,16.43,12.76,27.99,31.79,27.6,9.03-.18,13.45-3.73,14.66-12.71.32-2.35.33-4.76.33-7.14.03-17.76.08-35.51-.03-53.27-.03-4.76-.33-9.54-.89-14.27-2.4-20.23-15.08-31.38-34.26-30.27-6.55.38-9.96,3.04-11.91,9.2-.8,2.55-1.2,5.13-1.19,7.81.05,10.6.02,21.2.02,34.13Z"/>
  <path class="cls-1" d="M1333.67,201.5c2.65.06,6.22-.83,8.06,2.71,1.96,3.77.16,7.18-2.38,9.77-9.63,9.86-20.3,18.55-35.11,17.16-11.24-1.05-20.89-6.71-28.93-14.65-4-3.96-4.48-8.65-.31-12.31,10.72-9.42,12.39-21.25,11.95-34.56-.64-19.59-.18-39.23-.15-58.84,0-4.12-.18-8.22-.89-12.27-1.04-5.92-3.93-8.45-9.99-8.74-2.91-.14-5.81-.06-8.69-.85-3.47-.95-6.11-2.68-6.86-6.37-.76-3.74.65-6.82,3.61-9.06,2.85-2.16,5.79-4.24,8.87-6.04,8.94-5.25,16.03-12.1,20.14-21.81,1.23-2.91,2.84-5.71,4.63-8.31,1.98-2.86,4.78-4.65,8.51-3.92,3.73.73,5.63,3.36,6.32,6.86.49,2.46.77,4.97.91,7.48.18,3.31-.05,6.64.23,9.93.53,6.3,2.55,10.43,10.27,11.32,5.31.61,10.6.35,15.89.63,1.85.1,3.73.05,5.55.34,6.58,1.02,9.1,4.02,8.64,10.07-.44,5.77-3.35,8.42-9.75,8.69-7.02.3-14.05-.15-21.05.98-5.79.94-8.11,3.03-9.09,8.68-.45,2.63-.61,5.26-.61,7.91,0,25.31-.05,50.63-.02,75.94.02,13.12,6.52,19.41,20.24,19.27Z"/>
  <path class="cls-1" d="M1633.24,142.72c-.37-10.51.42-23.49-.38-36.48-.31-4.93-1.89-8.98-5.06-12.58-1.93-2.19-3.89-4.35-5.83-6.53-3.91-4.4-4.32-8.22-.92-12.89,5.32-7.28,12.35-12.33,21.05-14.86,2.83-.82,5.85-.82,8.67.02,8.79,2.63,16,7.63,21.38,15.07,3,4.16,2.86,7.14-.08,11.29-.23.32-.44.69-.74.94-9.98,8.34-12.15,19.15-11.68,31.7.76,20.25.34,40.54.13,60.82-.08,8.02,2.11,14.84,7.97,20.4.29.27.56.57.83.86,7.81,8.48,7.68,12.4-.71,20.26-1.55,1.45-3.23,2.75-4.86,4.1-17.69,14.65-32.61,2.68-43.04-10.42-1.94-2.44-1.84-5.54-.04-8.23,1.25-1.86,2.59-3.73,4.23-5.23,6.73-6.16,9.25-13.86,9.12-22.79-.17-11-.04-22-.04-35.46Z"/>
  <path class="cls-1" d="M1650.21,8.01c9.46.69,17.32,4.72,23.68,11.58,3.09,3.34,2.85,6.59-.54,10.68-5.66,6.83-13.2,10.99-21.37,14-12.09,4.46-22.12-.1-30.95-7.99-4.8-4.29-4.97-8.62-.65-13.22,8.04-8.55,17.78-14.1,29.83-15.05Z"/>
</svg>